<svg class="logo logoUleth" xmlns="http://www.w3.org/2000/svg" viewBox="0 0 422.16 162.78">
            <title>University of Lethbridge Logo</title>
            <defs>
              <style>
                  #logoBanner {
                    opacity: 0;
                  }
                  @media all and (min-width: 480px) {
                    #logoBanner {
                      opacity: 1;
                    }
                  }

                  .logoUleth .cls-1 {fill: #003c77;}
                  .logoUleth .cls-2 {fill: #fff;}
                  .logoUleth .cls-3 {fill: #231f20;}
                  .logoUleth .cls-4 {fill: #ffcf01;}
              </style>
            </defs>

            <g id="logoTextUofL">
              <path d="M155.33 41.89v.72c0 2.11-2-.88-2 4.87V61c0 6.35-3.62 9.66-9 9.66-5.69 0-9.13-3.15-9.13-9.38v-15.8c0-3.32-1.93-1.12-1.93-2.88v-.72h7.48v.72c0 1.76-1.93-.44-1.93 2.88v16.17c0 4.47 2 7.11 6 7.11 6.08 0 6.57-5.83 6.57-8V47.48c0-5.75-2.15-2.76-2.15-4.87v-.72zM157 50.87l4.88-.16v2a7.07 7.07 0 0 1 5.44-2.43c3.83 0 5.59 2 5.59 5.39v10.9c0 2.83 1.86.88 1.86 2.67V70h-7.07v-.72c0-1.79 1.9.16 1.9-2.67v-9.83c0-2.51-.28-4.59-3.51-4.59a5 5 0 0 0-3.93 2.35v12c0 2.83 1.89.88 1.89 2.67V70h-7v-.72c0-1.71 1.72 0 1.72-2.67V54.27c0-2.71-1.72-1-1.72-2.6zM182.38 66.57c0 2.71 1.69 1 1.69 2.67V70h-6.78v-.72c0-1.71 1.72 0 1.72-2.67V54.27c0-2.71-1.72-1-1.72-2.68v-.72l5.09-.16zm.18-21.09a2.16 2.16 0 1 1-2.14-2.48 2.34 2.34 0 0 1 2.14 2.48zM198.62 57.78a16 16 0 0 0 1.16-3.91c0-1.64-2-.76-2-2.28v-.72h6.68v.72c0 1.84-1.23-.64-2.85 3.64l-5.76 15h-1.93l-6-15.41c-1.47-3.8-2.57-1.36-2.57-3.24v-.72h8.12v.72c0 1.52-2 .72-2 2.08a5.68 5.68 0 0 0 .46 1.56l3.76 10.34zM209 59.78c-.21 4.35 1.83 8.86 6.11 8.86 2.21 0 3.79-1.44 5.16-3.31l1.2 1c-1.79 2.75-4 4.19-7.06 4.19-5.24 0-9-4.39-9-10.34 0-5.63 3.37-9.94 8.43-9.94 4.82 0 7.49 4.31 7.35 9.51zm8.43-1.92c.18-2.92-.84-5.91-3.83-5.91s-4.29 2.91-4.5 5.91zM228.73 56.75h.07c.53-2.48 2.18-6.47 4.82-6.47a2.17 2.17 0 0 1 2.28 2.27 2 2 0 0 1-2 2c-.91 0-1.44-.56-1.86-.56-1.83 0-3.3 6.15-3.3 8.82v3.72c0 3.11 2.14.64 2.14 2.67v.8h-7.52v-.72c0-2 2 .36 2-2.67V54.27c0-3-2-.68-2-2.68v-.72l5.41-.16zM237.48 66.73a2.06 2.06 0 0 1 2.07-2.12 2 2 0 0 1 2.07 1.8c0 .32-.18.72-.18 1 0 1.35 1.62 1.43 2.46 1.43 1.76 0 4-1 4-3.24 0-5-9.59-2.79-9.59-9.54 0-4 4-5.83 7-5.83 1.76 0 5.17.67 5.17 3.35a1.91 1.91 0 0 1-2 2 1.84 1.84 0 0 1-2-1.76c0-.28.07-.56.07-.83 0-.92-1.23-1-1.83-1-1.37 0-3.2 1-3.2 2.8 0 4.71 9.77 2.63 9.77 9.5 0 4.27-3.94 6.31-7.24 6.31-1.93-.04-6.57-.88-6.57-3.87zM259.52 66.57c0 2.71 1.69 1 1.69 2.67V70h-6.78v-.72c0-1.71 1.72 0 1.72-2.67V54.27c0-2.71-1.72-1-1.72-2.68v-.72l5.1-.16zm.18-21.09a2.16 2.16 0 1 1-2.15-2.48 2.34 2.34 0 0 1 2.14 2.48zM263.17 52.11c0-1.72 2.46-.16 2.46-3v-2.67c0-1 .35-1.16 1.12-1.2l2.25-.16v5.79h4.15V53H269v11.89c0 1.87.35 3.51 2.32 3.51a3 3 0 0 0 1.9-.56l.25-.16.67 1.24a6.84 6.84 0 0 1-4.29 1.64c-3.48 0-4.22-2.72-4.22-4.71V53h-2.46zM288.36 57.47a18.08 18.08 0 0 0 1-3.76c0-1.72-1.82-.6-1.82-2.12v-.72h6.32v.72c0 1.68-1.05-.4-2.39 3.08L285 71.76c-1.33 3.47-3 6.67-6.68 6.67-1.16 0-2.81-.76-2.81-2.39a2 2 0 0 1 2-2.08c2.35 0 1.37 2 2.35 2 1.76 0 3.3-4.39 3.9-6l-6.22-15.29c-1.44-3.56-2.64-1.32-2.64-3.08v-.72h8v.72c0 1.56-2 .56-2 1.76a6 6 0 0 0 .56 1.72l4.09 9.93zM321.29 60.26c0 5.63-3.62 10.3-8.71 10.3s-8.93-4.19-8.93-10c0-5.63 3.62-10.3 8.71-10.3s8.93 4.21 8.93 10zm-13.74 0c0 3.75.84 8.87 5 8.87 4 0 4.85-5 4.85-8.47 0-3.75-.77-8.86-5-8.86-3.9-.05-4.85 4.9-4.85 8.42zM323.57 53v-.72c0-.68.21-.76.67-.92 1.4-.48 1.23-.84 1.33-2.48.21-3.32.88-7.63 4.67-7.63a2.12 2.12 0 0 1 2.21 2 1.63 1.63 0 0 1-1.61 1.76 1.44 1.44 0 0 1-1.23-.68c-.21-.36-.35-.67-.63-.67s-.46.56-.46.88c.14 3.47.35 4.75.28 6.27h2.85V53h-2.85v13.37c0 3.19 2.18.88 2.18 2.87V70h-7.42v-.72c0-1.79 1.86.16 1.86-2.67V53zM135.42 124.26c0-2.81 3.09.7 3.09-4.6V86.25c0-5.3-3-1.79-3-4.6V80.5h11.92v1.15c0 2.81-3.09-.7-3.09 4.6v36.29h9.11c9.34 0 5.62-8.43 9.05-8.43h1.3v11.31h-28.38zM170.73 109.12c-.34 7 2.92 14.19 9.78 14.19 3.54 0 6.07-2.3 8.27-5.3l1.91 1.66c-2.87 4.41-6.41 6.71-11.3 6.71-8.38 0-14.45-7-14.45-16.55 0-9 5.4-15.91 13.5-15.91 7.7 0 12 6.9 11.75 15.2zm13.49-3.07c.28-4.66-1.35-9.45-6.13-9.45s-6.86 4.66-7.2 9.45zM191 96.85c0-2.74 3.94-.25 3.94-4.85v-4.22c0-1.66.56-1.85 1.8-1.92l3.6-.26v9.26h6.64v3.45h-6.68v19c0 3 .56 5.62 3.71 5.62a4.76 4.76 0 0 0 3-.89l.39-.26 1.07 2a10.93 10.93 0 0 1-6.86 2.62c-5.56 0-6.75-4.35-6.75-7.54V98.32H191zM218.52 120c0 4.47 2.87 1.47 2.87 4.28v1.15h-11.25v-1.15c0-2.87 3 .26 3-4.28V85.93c0-4.53-3-1.4-3-4.28V80.5l8.38-.25v17c2.76-2 5.34-3.32 8.66-3.32 8.49 0 9.33 6.71 9.33 8.62V120c0 4.47 2.92 1.41 2.92 4.28v1.15H228.3v-1.15c0-2.81 2.81.13 2.81-4.28v-15.93c0-2 .06-7.09-5.62-7.09a9.38 9.38 0 0 0-7 3.58zM250.23 96.47a13.35 13.35 0 0 1 7.93-2.55c7.93 0 12.82 7.15 12.82 16s-4.89 16.42-13.21 16.42a14.22 14.22 0 0 1-8.49-3.26l-3.28 3.29h-1.12V85.93c0-4.53-3-1.4-3-4.28V80.5l8.38-.25zm0 24.47a8.72 8.72 0 0 0 6 2.56c6.8 0 8.55-7.41 8.55-13.74s-2-13-8.55-13a8.72 8.72 0 0 0-6 2.55zM282 104.26h.11c.85-4 3.49-10.35 7.7-10.35a3.47 3.47 0 0 1 3.66 3.64 3.21 3.21 0 0 1-3.26 3.26c-1.46 0-2.3-.89-3-.89-2.93 0-5.29 9.84-5.29 14.12V120c0 5 3.43 1 3.43 4.28v1.15h-12v-1.15c0-3.19 3.26.58 3.26-4.28v-19.7c0-4.85-3.26-1.08-3.26-4.27v-1.16l8.66-.25zM303.13 120c0 4.34 2.7 1.53 2.7 4.28v1.15H295v-1.15c0-2.75 2.75.06 2.75-4.28v-19.7C297.73 96 295 98.76 295 96v-1.13l8.15-.25zm.28-33.73a3.46 3.46 0 1 1-3.43-3.9 3.74 3.74 0 0 1 3.43 3.88zM329.28 85.93c0-4.47-2.93-1.4-2.93-4.28V80.5l8.32-.25V120c0 4.28 2.64 1.6 2.64 4.28v1.15h-7.87v-2.56a11.19 11.19 0 0 1-8.1 3.52c-7.93 0-12.82-7.16-12.82-16s4.89-16.42 13.21-16.42a15 15 0 0 1 7.53 2.55zm0 13.41a8.72 8.72 0 0 0-6-2.55c-6.8 0-8.54 7.41-8.54 13.74s2 13 8.54 13a8.72 8.72 0 0 0 6-2.56zM345.41 120.75a29.69 29.69 0 0 1 6.69-1c11 0 13.16 6.07 13.16 9 0 7.67-8 10.16-13.55 10.16-3.26 0-11.92-1.15-11.92-6.45a3.25 3.25 0 0 1 3.32-3.45 3 3 0 0 1 3 2.81c0 .77-.34 1.47-.34 2 0 2.3 5 2.36 6.3 2.36 2.92 0 8.32-1.4 8.32-5.62 0-5-6.92-5.62-10.06-5.62-4.73 0-8.89 1.34-9.5 1.34-.45 0-.45-.45-.34-.7l4.89-11.44a10.45 10.45 0 0 1-4.72-8.82c0-7.22 5.79-11.5 11.81-11.5a12.45 12.45 0 0 1 6.3 1.92c.39-2.49 2-4.47 4.33-4.47a3.05 3.05 0 0 1 3.2 3.13 2.47 2.47 0 0 1-2.47 2.62c-1.85 0-2-1.47-2.47-1.47s-.68.58-.68 1c0 1.41 3.09 3.45 3.09 8a11.22 11.22 0 0 1-11.41 11.56 10.66 10.66 0 0 1-4.67-.83zm6.92-6.58c4.33 0 5.79-5.37 5.79-9.39S356.6 96 352.39 96c-4.56 0-6 5-6 9.33s1.61 8.83 5.94 8.83zM372.91 109.12c-.34 7 2.92 14.19 9.78 14.19 3.54 0 6.07-2.3 8.27-5.3l1.91 1.66c-2.87 4.41-6.41 6.71-11.3 6.71-8.38 0-14.45-7-14.45-16.55 0-9 5.4-15.91 13.49-15.91 7.7 0 12 6.9 11.76 15.2zm13.49-3.07c.28-4.66-1.35-9.45-6.13-9.45s-6.86 4.66-7.19 9.45z"/>
            </g>
            <g id="logoBanner">
              <path class="cls-1" d="M109.06 117.7l-1 .09A51.91 51.91 0 0 0 89.38 123a49.24 49.24 0 0 0-10.47 6.95l-.41.36 9.66 10.28.38-.35a34.32 34.32 0 0 1 7.8-5.27 36.34 36.34 0 0 1 14.46-3.73l1.35-.06-1-.87a32 32 0 0 0-7-4.42l4.44-7.27z"/>
              <path class="cls-2" d="M103 126.61l-.6-.22L107 119a50.8 50.8 0 0 0-17.2 5 48.28 48.28 0 0 0-9.82 6.45l8.2 8.72a35.51 35.51 0 0 1 7.64-5.1 37.33 37.33 0 0 1 13.5-3.74 27.26 27.26 0 0 0-6.32-3.72z"/>
              <path class="cls-1" d="M26.12 118.49l4.44 7.27a32.07 32.07 0 0 0-7 4.42l-1 .87 1.35.06a36.34 36.34 0 0 1 14.46 3.73 34.31 34.31 0 0 1 7.8 5.27l.38.35 9.66-10.28-.41-.36a49.23 49.23 0 0 0-10.47-6.95 51.91 51.91 0 0 0-18.63-5.2l-1-.09z"/>
              <path class="cls-2" d="M31.63 126.51l.6-.22-4.54-7.43a50.79 50.79 0 0 1 17.2 5 48.26 48.26 0 0 1 9.82 6.45L46.5 139a35.45 35.45 0 0 0-7.64-5.1 37.32 37.32 0 0 0-13.5-3.74 27.29 27.29 0 0 1 6.27-3.65z"/>
              <path class="cls-1" d="M67.38 136.22a35.13 35.13 0 0 1-24.3-9.08h-1.47l-7.08 10.42.36.31a50.45 50.45 0 0 0 32.48 11.85A49.68 49.68 0 0 0 99.64 138l.36-.31-7-10.43H91.34c-6.5 6.03-14.68 8.96-23.96 8.96z"/>
              <path class="cls-2" d="M67.43 137.24A37 37 0 0 0 92.22 128l6.41 9.49a48.63 48.63 0 0 1-31.2 11.18A49.38 49.38 0 0 1 36 137.32l6.41-9.49a37.76 37.76 0 0 0 25.02 9.41z"/>
              <path class="cls-1" d="M93 127.25h-1.27a34.23 34.23 0 0 0-12.45 2.72l-.8.35 3.74 4 .2-.09a37.33 37.33 0 0 0 8.77-5.4z"/>
              <path class="cls-2" d="M82.46 133.07l-2.34-2.47a33.61 33.61 0 0 1 10.25-2.41 36.18 36.18 0 0 1-7.91 4.88z"/>
              <path class="cls-1" d="M43.42 128.66a37.33 37.33 0 0 0 8.77 5.4l.2.1 3.74-4-.8-.35a34.23 34.23 0 0 0-12.45-2.72h-1.27z"/>
              <path class="cls-2" d="M52.18 133l2.34-2.47a34.35 34.35 0 0 0-10.25-2.41 36.19 36.19 0 0 0 7.91 4.88z"/>
              <g id="textFiatLux">
                <path class="cls-3" d="M45 132.87l3.12 1.92-.46.74-2.28-1.4-1.06 1.71 2.18 1.34-.46.74-2.18-1.34-1.65 2.67-.84-.52zM50.34 135.84l.9.41-2.85 6.28-.9-.41zM55.94 138l1 .28.94 7.42-1-.29-.2-1.86-3.25-.91-1.14 1.48-1-.28zm.21 1l-2.25 2.92 2.64.74zM63 140.25l-2.13-.2.08-.86 5.25.49-.08.86-2.13-.2-.56 6-1-.09zM72.18 139.37l1-.15.93 6 2.85-.45.13.86-3.82.6zM84.43 140.38c.63 1.83 0 3.13-1.56 3.68s-2.87-.11-3.5-1.94l-1.31-3.82.94-.3 1.27 3.7c.43 1.25 1.12 2 2.32 1.56s1.3-1.41.87-2.66l-1.27-3.7.93-.32zM88.76 137.38l-3.67-1.69 1-.6 2.91 1.36.24-3.21 1-.57-.34 4 4 1.82-1.07.63-3.23-1.49-.22 3.52-1 .6z"/>
              </g>
            </g>
            <g id="logoShield">
              <path id="shieldBorder" class="cls-1" d="M67.31 133.36l-.72-.8c-.1-.11-2.85-3-19.8-12.86C30.68 110.32 29.11 91.23 29 85.6V35.28l.67-.22q1.54-.5 3.14-1a127.19 127.19 0 0 1 34.51-4.54 127.18 127.18 0 0 1 34.51 4.54q1.6.46 3.14 1l.67.22V85.6c-.1 5.62-1.67 24.68-17.78 34.1-17.09 10-19.71 12.75-19.81 12.87z"/>
              <path id="shieldWhite" class="cls-2" d="M30.93 84.84v.73c.07 5.37 1.59 23.59 16.84 32.43 13.2 7.69 18 11.25 19.56 12.59 1.58-1.32 6.31-4.84 19.55-12.59 15.24-8.92 16.73-27.11 16.82-32.47V36.68q-1.19-.37-2.41-.73a125.22 125.22 0 0 0-34-4.46 125.24 125.24 0 0 0-34 4.46q-1.22.35-2.41.73z"/>
              <path id="shieldInner" class="cls-1" d="M97.7 39.23a110.2 110.2 0 0 0-30.38-4 110.22 110.22 0 0 0-30.38 4q-1.41.41-2.76.85v44.59c.08 4.5 1.16 21.55 15.35 29.92 15.58 9.19 17.78 11.74 17.78 11.74s2-2.4 17.78-11.74c14.17-8.41 15.27-25.42 15.35-29.92V40.08q-1.34-.44-2.74-.85z"/>
              <path id="sun" class="cls-4" d="M90.39 82.9c-2-1-2.07-.68-5.07-1.16a4.32 4.32 0 0 1-3.17-2.53l14.21-3-15-3.13a12.92 12.92 0 0 0 5.19-2.13c1.26-1.1 2.09-3.11 4.49-3.29a3.8 3.8 0 0 1 3.42 2 3.46 3.46 0 0 0-.73-3.33 5 5 0 0 0-5.51-1.67c-2.12.7-1.94 1-4.4 2.77a4.33 4.33 0 0 1-4 .45l7.92-12.17-12.8 8.39a12.89 12.89 0 0 0 2.16-5.18c.12-1.67-.71-3.68.84-5.5a3.8 3.8 0 0 1 3.85-1 3.46 3.46 0 0 0-2.87-1.84 5 5 0 0 0-5.07 2.71c-1 2-.68 2.07-1.16 5.07a4.25 4.25 0 0 1-2.42 3.11L67.43 47l-3.37 15.44c-.45-1.93-1.08-4.08-2.17-5.33s-3.1-2.11-3.29-4.48a3.79 3.79 0 0 1 2-3.42 3.46 3.46 0 0 0-3.33.73 5 5 0 0 0-1.67 5.51c.7 2.13 1 1.94 2.77 4.4a4.32 4.32 0 0 1 .45 4L46.67 56 55 68.75a12.92 12.92 0 0 0-5.18-2.16c-1.67-.12-3.68.71-5.5-.84a3.79 3.79 0 0 1-1-3.85 3.46 3.46 0 0 0-1.84 2.87 5 5 0 0 0 2.71 5.07c2 1 2.07.68 5.07 1.16a4.32 4.32 0 0 1 3.17 2.53l-14.21 3 15 3.13a12.94 12.94 0 0 0-5.19 2.13c-1.26 1.1-2.1 3.1-4.49 3.29a3.8 3.8 0 0 1-3.41-2 3.46 3.46 0 0 0 .73 3.33 5 5 0 0 0 5.5 1.67c2.13-.7 1.94-1 4.4-2.77a4.32 4.32 0 0 1 4-.45L46.9 97l12.8-8.38a12.92 12.92 0 0 0-2.16 5.18c-.12 1.67.71 3.68-.84 5.5a3.8 3.8 0 0 1-3.85 1 3.46 3.46 0 0 0 2.87 1.84 5 5 0 0 0 5.08-2.71c1-2 .68-2.07 1.16-5.07a4.32 4.32 0 0 1 2.53-3.17l3 14.21 3.13-15a13 13 0 0 0 2.13 5.2c1.1 1.26 3.11 2.09 3.29 4.48a3.8 3.8 0 0 1-2 3.42 3.46 3.46 0 0 0 3.33-.73A5 5 0 0 0 79 97.3c-.7-2.13-1-1.94-2.77-4.4a4.32 4.32 0 0 1-.45-4L88 96.79 79.59 84a13 13 0 0 0 5.18 2.16c1.67.12 3.68-.71 5.5.84a3.79 3.79 0 0 1 1 3.85A3.46 3.46 0 0 0 93.1 88a5 5 0 0 0-2.71-5.1z"/>
            </g>
          </svg>